<svg xmlns="http://www.w3.org/2000/svg" xmlns:xlink="http://www.w3.org/1999/xlink" width="793" zoomAndPan="magnify" viewBox="0 0 594.95996 842.24997" height="1122" preserveAspectRatio="xMidYMid meet" version="1.0"><defs><clipPath id="6cacfbb4b2"><path d="M 84 79.320312 L 223 79.320312 L 223 476 L 84 476 Z M 84 79.320312 " clip-rule="nonzero"/></clipPath><clipPath id="290681e476"><path d="M 4.65625 413 L 587 413 L 587 761.964844 L 4.65625 761.964844 Z M 4.65625 413 " clip-rule="nonzero"/></clipPath></defs><g clip-path="url(#6cacfbb4b2)"><path fill="#ffffff" d="M 125.3125 214.816406 C 136.40625 202.125 150.691406 188.566406 164.140625 173.539062 C 170.003906 166.988281 176.0625 158.3125 182.3125 147.511719 C 191.847656 131.046875 197.992188 113.378906 200.746094 94.511719 C 201.453125 89.671875 202.15625 84.867188 202.847656 80.09375 C 202.882812 79.847656 203.023438 79.710938 203.269531 79.679688 C 203.515625 79.652344 203.6875 79.75 203.78125 79.980469 C 211.082031 98.253906 216.839844 114.644531 217.035156 135.453125 C 217.085938 141.109375 217.367188 146.886719 216.769531 152.289062 C 213.28125 183.511719 198.289062 208.113281 183.230469 234.796875 C 172.417969 253.964844 166.117188 275.246094 164.328125 298.652344 C 162.128906 327.3125 163.296875 353.152344 174.695312 378.523438 C 178.59375 387.207031 183.5625 397.195312 189.589844 408.496094 C 201.085938 430.039062 212.421875 451.773438 222.34375 474.085938 C 222.410156 474.242188 222.417969 474.402344 222.375 474.566406 C 222.328125 474.730469 222.234375 474.863281 222.097656 474.964844 C 221.960938 475.0625 221.808594 475.109375 221.636719 475.101562 C 221.46875 475.09375 221.316406 475.035156 221.191406 474.921875 C 218.796875 472.738281 216.332031 470.484375 213.710938 468.511719 C 193.289062 453.195312 175.667969 441.128906 156.644531 427.425781 C 120.316406 401.257812 85.503906 363.765625 84.289062 316.144531 C 83.308594 277.890625 101.042969 242.597656 125.3125 214.816406 Z M 125.3125 214.816406 " fill-opacity="1" fill-rule="nonzero"/></g><path fill="#ffffff" d="M 248.230469 452.722656 C 228.652344 434.65625 214.886719 413.015625 211.367188 386.289062 C 207.398438 356.128906 215.105469 324.894531 229.863281 298.53125 C 238.601562 282.9375 248.855469 268.316406 259.09375 253.6875 C 273.0625 233.742188 286.261719 211.496094 288.847656 187.300781 C 291.6875 160.632812 283.671875 131.804688 271.15625 108.273438 C 271.09375 108.152344 271.074219 108.027344 271.097656 107.894531 C 271.121094 107.757812 271.1875 107.648438 271.289062 107.554688 C 271.390625 107.464844 271.507812 107.417969 271.644531 107.410156 C 271.78125 107.398438 271.902344 107.433594 272.015625 107.511719 C 302.84375 129.523438 324.625 159.023438 329.242188 197.320312 C 333.0625 229.046875 319.703125 258.742188 296.484375 279.925781 C 287.617188 288.007812 278.027344 296.292969 270.367188 304.84375 C 247.800781 330.085938 231.621094 359.757812 234.226562 394.800781 C 235.894531 417.230469 242.785156 437.925781 254.90625 456.878906 C 255.050781 457.097656 255.03125 457.300781 254.851562 457.492188 C 254.667969 457.679688 254.464844 457.707031 254.242188 457.574219 C 251.832031 456.203125 250.199219 454.558594 248.230469 452.722656 Z M 248.230469 452.722656 " fill-opacity="1" fill-rule="nonzero"/><path fill="#ffffff" d="M 295.324219 463.34375 C 275.886719 445.640625 264.144531 422.207031 268.730469 395.488281 C 275.316406 357.160156 307.550781 337.015625 336.617188 316.851562 C 357.035156 302.6875 376.328125 281.648438 376.394531 255.300781 C 376.398438 255.15625 376.445312 255.023438 376.542969 254.910156 C 376.636719 254.800781 376.757812 254.730469 376.902344 254.703125 C 377.046875 254.675781 377.183594 254.695312 377.3125 254.765625 C 377.445312 254.835938 377.535156 254.9375 377.59375 255.074219 C 381.625 265.304688 384.742188 277.523438 383.644531 288.511719 C 379.882812 326.441406 347.933594 344.332031 323.386719 367.683594 C 321.199219 369.761719 317.578125 373.78125 312.523438 379.742188 C 301.804688 392.359375 294.058594 407.351562 292.65625 424.007812 C 291.460938 438.136719 295.105469 453.609375 300.679688 466.742188 C 300.777344 466.964844 300.734375 467.152344 300.550781 467.308594 C 300.367188 467.46875 300.175781 467.480469 299.972656 467.351562 C 298.253906 466.289062 296.539062 464.457031 295.324219 463.34375 Z M 295.324219 463.34375 " fill-opacity="1" fill-rule="nonzero"/><g clip-path="url(#290681e476)"><path fill="#ffffff" d="M 466.648438 509.496094 C 494.667969 484.886719 539.09375 486.703125 565.078125 513.339844 C 582.894531 531.613281 590.625 558.191406 583.625 583.785156 C 575.488281 613.535156 552.460938 637.609375 527.664062 654.1875 C 495.867188 675.425781 458.289062 688.742188 420.0625 693.976562 C 415.714844 694.570312 411.363281 695.140625 407.011719 695.6875 C 400.660156 696.472656 394.558594 695.113281 389.269531 700.011719 C 350.667969 735.71875 300.378906 759.054688 247.417969 761.003906 C 228.351562 761.699219 211.707031 760.878906 193.339844 757.164062 C 140.28125 746.453125 92.914062 714.511719 59.902344 672.058594 C 30.824219 634.671875 13.214844 592.59375 7.070312 545.820312 C 6.449219 541.113281 6.042969 535.726562 5.855469 529.65625 C 5.378906 514.4375 5.023438 497.121094 4.785156 477.714844 C 4.703125 471.191406 4.941406 465.257812 5.5 459.914062 C 7.632812 439.367188 31.027344 431.003906 48.488281 426.207031 C 65.8125 421.453125 83.394531 417.949219 101.234375 415.699219 C 104.511719 415.289062 106.582031 414.476562 109.105469 417.332031 C 113.425781 422.222656 117.765625 426.960938 122.117188 431.546875 C 122.261719 431.699219 122.292969 431.871094 122.222656 432.066406 C 122.148438 432.261719 122.007812 432.371094 121.800781 432.390625 C 102.84375 434.339844 84.300781 437.578125 66.164062 442.109375 C 58.917969 443.921875 52.035156 446.601562 45.519531 450.144531 C 40.941406 452.632812 37.363281 455.808594 39.570312 461.210938 C 42.980469 469.535156 71.171875 476.089844 79.996094 477.714844 C 101.828125 481.730469 123.675781 484.171875 145.773438 486.046875 C 165.359375 487.710938 185.445312 488.765625 206.035156 489.210938 C 226.632812 489.664062 245.480469 490.242188 264.648438 489.59375 C 273.980469 489.277344 283.308594 489.027344 292.636719 488.835938 C 306.867188 488.546875 321.558594 487.175781 335.847656 485.820312 C 356.882812 483.824219 377.917969 481.363281 398.636719 477.105469 C 408.480469 475.078125 423.023438 471.546875 430.976562 465.390625 C 437.621094 460.238281 433.15625 453.121094 426.828125 450.109375 C 419.058594 446.410156 411.121094 443.667969 403.019531 441.875 C 386.984375 438.332031 370.519531 435.640625 353.628906 433.800781 C 344.679688 432.828125 333.175781 432.472656 322.996094 431.425781 C 322.839844 431.410156 322.695312 431.363281 322.5625 431.285156 C 322.425781 431.207031 322.3125 431.101562 322.222656 430.976562 C 322.132812 430.847656 322.070312 430.707031 322.039062 430.554688 C 322.011719 430.402344 322.011719 430.246094 322.046875 430.09375 L 325.753906 413.859375 C 325.820312 413.566406 326.003906 413.421875 326.304688 413.429688 C 338.832031 413.679688 354.34375 414.9375 363.882812 415.902344 C 387.320312 418.265625 410.742188 422.191406 433.246094 429.859375 C 443.386719 433.316406 456.230469 439.734375 462.199219 448.292969 C 466.476562 454.410156 467.921875 462.136719 467.742188 469.648438 C 467.519531 478.972656 467.445312 488.304688 467.515625 497.640625 C 467.546875 501.585938 467.175781 505.488281 466.394531 509.347656 C 466.335938 509.644531 466.417969 509.695312 466.648438 509.496094 Z M 536.441406 527.570312 C 527.085938 521.617188 514.324219 519.34375 503.625 521.988281 C 483.058594 527.085938 468.925781 544.609375 463.546875 564.433594 C 461.945312 570.328125 460.335938 576.222656 458.710938 582.113281 C 449.976562 613.886719 434.871094 643.703125 415.140625 670.113281 C 414.300781 671.238281 414.570312 671.683594 415.949219 671.445312 C 441.714844 667.078125 466.539062 658.570312 490.417969 645.917969 C 517.320312 631.664062 559.449219 599.378906 557.214844 564.628906 C 556.226562 549.277344 549.519531 535.890625 536.441406 527.570312 Z M 536.441406 527.570312 " fill-opacity="1" fill-rule="nonzero"/></g></svg>