<svg xmlns="http://www.w3.org/2000/svg" xmlns:xlink="http://www.w3.org/1999/xlink" width="793" zoomAndPan="magnify" viewBox="0 0 594.95996 842.24997" height="1122" preserveAspectRatio="xMidYMid meet" version="1.0"><defs><clipPath id="f5c3e33fce"><path d="M 12.238281 149.574219 L 269 149.574219 L 269 406 L 12.238281 406 Z M 12.238281 149.574219 " clip-rule="nonzero"/></clipPath><clipPath id="7dcd74fd3f"><path d="M 327 149.574219 L 583 149.574219 L 583 406 L 327 406 Z M 327 149.574219 " clip-rule="nonzero"/></clipPath><clipPath id="934c21fc81"><path d="M 12.238281 464 L 269 464 L 269 720.5625 L 12.238281 720.5625 Z M 12.238281 464 " clip-rule="nonzero"/></clipPath><clipPath id="85ab53f99e"><path d="M 327 464 L 583 464 L 583 720.5625 L 327 720.5625 Z M 327 464 " clip-rule="nonzero"/></clipPath></defs><g clip-path="url(#f5c3e33fce)"><path fill="#ffffff" d="M 217.90625 149.574219 L 62.425781 149.574219 C 34.871094 149.574219 12.238281 172.207031 12.238281 199.761719 L 12.238281 355.242188 C 12.238281 382.796875 34.871094 405.429688 62.425781 405.429688 L 217.90625 405.429688 C 245.460938 405.429688 268.09375 382.796875 268.09375 355.242188 L 268.09375 199.761719 C 268.09375 172.207031 245.460938 149.574219 217.90625 149.574219 Z M 217.90625 149.574219 " fill-opacity="1" fill-rule="nonzero"/></g><g clip-path="url(#7dcd74fd3f)"><path fill="#ffffff" d="M 532.808594 149.574219 L 377.324219 149.574219 C 349.773438 149.574219 327.140625 172.207031 327.140625 199.761719 L 327.140625 355.242188 C 327.140625 382.796875 349.773438 405.429688 377.324219 405.429688 L 532.808594 405.429688 C 560.363281 405.429688 582.996094 382.796875 582.996094 355.242188 L 582.996094 199.761719 C 582.996094 172.207031 560.363281 149.574219 532.808594 149.574219 Z M 532.808594 149.574219 " fill-opacity="1" fill-rule="nonzero"/></g><g clip-path="url(#934c21fc81)"><path fill="#ffffff" d="M 217.90625 464.472656 L 62.425781 464.472656 C 34.871094 464.472656 12.238281 487.105469 12.238281 514.660156 L 12.238281 670.144531 C 12.238281 697.695312 34.871094 720.332031 62.425781 720.332031 L 217.90625 720.332031 C 245.460938 720.332031 268.09375 697.695312 268.09375 670.144531 L 268.09375 514.660156 C 268.09375 487.105469 245.460938 464.472656 217.90625 464.472656 Z M 217.90625 464.472656 " fill-opacity="1" fill-rule="nonzero"/></g><g clip-path="url(#85ab53f99e)"><path fill="#ffffff" d="M 532.808594 464.472656 L 377.324219 464.472656 C 349.773438 464.472656 327.140625 487.105469 327.140625 514.660156 L 327.140625 670.144531 C 327.140625 697.695312 349.773438 720.332031 377.324219 720.332031 L 532.808594 720.332031 C 560.363281 720.332031 582.996094 697.695312 582.996094 670.144531 L 582.996094 514.660156 C 582.996094 487.105469 560.363281 464.472656 532.808594 464.472656 Z M 532.808594 464.472656 " fill-opacity="1" fill-rule="nonzero"/></g></svg>