<svg xmlns="http://www.w3.org/2000/svg" xmlns:xlink="http://www.w3.org/1999/xlink" width="793" zoomAndPan="magnify" viewBox="0 0 594.95996 842.24997" height="1122" preserveAspectRatio="xMidYMid meet" version="1.0"><defs><clipPath id="b53d60b6db"><path d="M 101 397 L 594.675781 397 L 594.675781 694 L 101 694 Z M 101 397 " clip-rule="nonzero"/></clipPath></defs><path fill="#ffffff" d="M 422.234375 791.972656 L 274.167969 791.972656 C 273.359375 791.972656 272.554688 791.933594 271.75 791.851562 C 270.945312 791.773438 270.148438 791.65625 269.355469 791.496094 C 268.5625 791.339844 267.777344 791.144531 267.003906 790.910156 C 266.230469 790.675781 265.472656 790.402344 264.726562 790.09375 C 263.976562 789.785156 263.25 789.4375 262.535156 789.058594 C 261.824219 788.675781 261.128906 788.261719 260.457031 787.8125 C 259.785156 787.363281 259.136719 786.882812 258.511719 786.371094 C 257.886719 785.855469 257.289062 785.316406 256.71875 784.742188 C 256.148438 784.171875 255.605469 783.574219 255.09375 782.949219 C 254.578125 782.324219 254.097656 781.675781 253.648438 781.003906 C 253.199219 780.332031 252.785156 779.640625 252.40625 778.925781 C 252.023438 778.214844 251.679688 777.484375 251.371094 776.738281 C 251.058594 775.992188 250.789062 775.230469 250.554688 774.457031 C 250.320312 773.683594 250.121094 772.902344 249.964844 772.109375 C 249.808594 771.316406 249.6875 770.515625 249.609375 769.710938 C 249.53125 768.90625 249.492188 768.101562 249.492188 767.292969 C 249.492188 766.484375 249.53125 765.679688 249.609375 764.875 C 249.6875 764.070312 249.808594 763.273438 249.964844 762.480469 C 250.121094 761.6875 250.320312 760.902344 250.554688 760.128906 C 250.789062 759.355469 251.058594 758.597656 251.371094 757.851562 C 251.679688 757.101562 252.023438 756.375 252.40625 755.660156 C 252.785156 754.949219 253.199219 754.253906 253.648438 753.582031 C 254.097656 752.910156 254.578125 752.261719 255.09375 751.636719 C 255.605469 751.011719 256.148438 750.414062 256.71875 749.84375 C 257.289062 749.273438 257.886719 748.730469 258.511719 748.21875 C 259.136719 747.703125 259.785156 747.222656 260.457031 746.773438 C 261.128906 746.324219 261.824219 745.910156 262.535156 745.53125 C 263.25 745.148438 263.976562 744.804688 264.726562 744.492188 C 265.472656 744.183594 266.230469 743.914062 267.003906 743.679688 C 267.777344 743.445312 268.5625 743.246094 269.355469 743.089844 C 270.148438 742.933594 270.945312 742.8125 271.75 742.734375 C 272.554688 742.65625 273.359375 742.617188 274.167969 742.617188 L 422.234375 742.617188 C 423.042969 742.617188 423.851562 742.65625 424.65625 742.734375 C 425.457031 742.8125 426.257812 742.933594 427.050781 743.089844 C 427.84375 743.246094 428.625 743.445312 429.398438 743.679688 C 430.171875 743.914062 430.933594 744.183594 431.679688 744.492188 C 432.425781 744.804688 433.15625 745.148438 433.867188 745.53125 C 434.582031 745.910156 435.273438 746.324219 435.945312 746.773438 C 436.617188 747.222656 437.265625 747.703125 437.890625 748.21875 C 438.515625 748.730469 439.113281 749.273438 439.6875 749.84375 C 440.257812 750.414062 440.800781 751.011719 441.3125 751.636719 C 441.824219 752.261719 442.304688 752.910156 442.753906 753.582031 C 443.203125 754.253906 443.617188 754.949219 444 755.660156 C 444.378906 756.375 444.726562 757.101562 445.035156 757.851562 C 445.34375 758.597656 445.617188 759.355469 445.851562 760.128906 C 446.085938 760.902344 446.28125 761.6875 446.4375 762.480469 C 446.597656 763.273438 446.714844 764.070312 446.792969 764.875 C 446.875 765.679688 446.914062 766.484375 446.914062 767.292969 C 446.914062 768.101562 446.875 768.90625 446.792969 769.710938 C 446.714844 770.515625 446.597656 771.316406 446.4375 772.109375 C 446.28125 772.902344 446.085938 773.683594 445.851562 774.457031 C 445.617188 775.230469 445.34375 775.992188 445.035156 776.738281 C 444.726562 777.484375 444.378906 778.214844 444 778.925781 C 443.617188 779.640625 443.203125 780.332031 442.753906 781.003906 C 442.304688 781.675781 441.824219 782.324219 441.3125 782.949219 C 440.800781 783.574219 440.257812 784.171875 439.6875 784.742188 C 439.113281 785.316406 438.515625 785.855469 437.890625 786.371094 C 437.265625 786.882812 436.617188 787.363281 435.945312 787.8125 C 435.273438 788.261719 434.582031 788.675781 433.867188 789.058594 C 433.15625 789.4375 432.425781 789.785156 431.679688 790.09375 C 430.933594 790.402344 430.171875 790.675781 429.398438 790.910156 C 428.625 791.144531 427.84375 791.339844 427.050781 791.496094 C 426.257812 791.65625 425.457031 791.773438 424.65625 791.851562 C 423.851562 791.933594 423.042969 791.972656 422.234375 791.972656 Z M 422.234375 791.972656 " fill-opacity="1" fill-rule="nonzero"/><path fill="#ffffff" d="M 348.203125 791.972656 C 347.394531 791.972656 346.585938 791.933594 345.785156 791.851562 C 344.980469 791.773438 344.179688 791.65625 343.386719 791.496094 C 342.59375 791.339844 341.8125 791.144531 341.039062 790.910156 C 340.265625 790.675781 339.503906 790.402344 338.757812 790.09375 C 338.011719 789.785156 337.28125 789.4375 336.570312 789.058594 C 335.855469 788.675781 335.164062 788.261719 334.492188 787.8125 C 333.820312 787.363281 333.171875 786.882812 332.546875 786.371094 C 331.921875 785.855469 331.324219 785.316406 330.753906 784.742188 C 330.179688 784.171875 329.640625 783.574219 329.125 782.949219 C 328.613281 782.324219 328.132812 781.675781 327.683594 781.003906 C 327.234375 780.332031 326.820312 779.640625 326.4375 778.925781 C 326.058594 778.214844 325.710938 777.484375 325.402344 776.738281 C 325.09375 775.992188 324.820312 775.230469 324.585938 774.457031 C 324.351562 773.683594 324.15625 772.902344 324 772.109375 C 323.839844 771.316406 323.722656 770.515625 323.644531 769.710938 C 323.5625 768.90625 323.523438 768.101562 323.523438 767.292969 L 323.523438 668.582031 C 323.523438 667.773438 323.5625 666.96875 323.644531 666.164062 C 323.722656 665.359375 323.839844 664.558594 324 663.769531 C 324.15625 662.976562 324.351562 662.191406 324.585938 661.417969 C 324.820312 660.644531 325.09375 659.886719 325.402344 659.136719 C 325.710938 658.390625 326.058594 657.660156 326.4375 656.949219 C 326.820312 656.234375 327.234375 655.542969 327.683594 654.871094 C 328.132812 654.199219 328.613281 653.550781 329.125 652.925781 C 329.640625 652.300781 330.179688 651.703125 330.753906 651.132812 C 331.324219 650.5625 331.921875 650.019531 332.546875 649.507812 C 333.171875 648.992188 333.820312 648.511719 334.492188 648.0625 C 335.164062 647.613281 335.855469 647.199219 336.570312 646.816406 C 337.28125 646.4375 338.011719 646.09375 338.757812 645.78125 C 339.503906 645.472656 340.265625 645.203125 341.039062 644.96875 C 341.8125 644.730469 342.59375 644.535156 343.386719 644.378906 C 344.179688 644.222656 344.980469 644.101562 345.785156 644.023438 C 346.585938 643.945312 347.394531 643.90625 348.203125 643.90625 C 349.011719 643.90625 349.816406 643.945312 350.621094 644.023438 C 351.425781 644.101562 352.222656 644.222656 353.015625 644.378906 C 353.808594 644.535156 354.59375 644.730469 355.367188 644.96875 C 356.140625 645.203125 356.898438 645.472656 357.644531 645.78125 C 358.394531 646.09375 359.121094 646.4375 359.835938 646.816406 C 360.546875 647.199219 361.242188 647.613281 361.914062 648.0625 C 362.585938 648.511719 363.234375 648.992188 363.859375 649.507812 C 364.484375 650.019531 365.082031 650.5625 365.652344 651.132812 C 366.222656 651.703125 366.765625 652.300781 367.277344 652.925781 C 367.792969 653.550781 368.273438 654.199219 368.722656 654.871094 C 369.171875 655.542969 369.585938 656.234375 369.964844 656.949219 C 370.347656 657.660156 370.691406 658.390625 371 659.136719 C 371.3125 659.886719 371.582031 660.644531 371.816406 661.417969 C 372.050781 662.191406 372.25 662.976562 372.40625 663.769531 C 372.5625 664.558594 372.683594 665.359375 372.761719 666.164062 C 372.839844 666.96875 372.878906 667.773438 372.878906 668.582031 L 372.878906 767.292969 C 372.878906 768.101562 372.839844 768.90625 372.761719 769.710938 C 372.683594 770.515625 372.5625 771.316406 372.40625 772.109375 C 372.25 772.902344 372.050781 773.683594 371.816406 774.457031 C 371.582031 775.230469 371.3125 775.992188 371 776.738281 C 370.691406 777.484375 370.347656 778.214844 369.964844 778.925781 C 369.585938 779.640625 369.171875 780.332031 368.722656 781.003906 C 368.273438 781.675781 367.792969 782.324219 367.277344 782.949219 C 366.765625 783.574219 366.222656 784.171875 365.652344 784.742188 C 365.082031 785.316406 364.484375 785.855469 363.859375 786.371094 C 363.234375 786.882812 362.585938 787.363281 361.914062 787.8125 C 361.242188 788.261719 360.546875 788.675781 359.835938 789.058594 C 359.121094 789.4375 358.394531 789.785156 357.644531 790.09375 C 356.898438 790.402344 356.140625 790.675781 355.367188 790.910156 C 354.59375 791.144531 353.808594 791.339844 353.015625 791.496094 C 352.222656 791.65625 351.425781 791.773438 350.621094 791.851562 C 349.816406 791.933594 349.011719 791.972656 348.203125 791.972656 Z M 348.203125 791.972656 " fill-opacity="1" fill-rule="nonzero"/><path fill="#ffffff" d="M 543.894531 372.449219 L 344.503906 372.449219 C 329.257812 349.273438 311.734375 327.964844 291.9375 308.53125 C 210.992188 226.847656 282.066406 109.628906 330.929688 59.285156 C 331.824219 58.34375 332.785156 57.480469 333.816406 56.691406 C 334.847656 55.898438 335.933594 55.195312 337.074219 54.578125 C 338.214844 53.960938 339.398438 53.4375 340.625 53.007812 C 341.847656 52.578125 343.101562 52.246094 344.378906 52.015625 C 345.65625 51.78125 346.941406 51.652344 348.238281 51.625 C 349.539062 51.59375 350.828125 51.667969 352.117188 51.84375 C 353.402344 52.019531 354.664062 52.296875 355.910156 52.671875 C 357.152344 53.050781 358.355469 53.519531 359.523438 54.085938 C 360.691406 54.652344 361.808594 55.308594 362.871094 56.050781 C 363.9375 56.796875 364.933594 57.617188 365.867188 58.519531 C 366.800781 59.421875 367.660156 60.390625 368.441406 61.429688 C 369.222656 62.464844 369.914062 63.558594 370.523438 64.703125 C 371.128906 65.851562 371.644531 67.039062 372.0625 68.269531 C 372.484375 69.496094 372.804688 70.75 373.023438 72.03125 C 373.246094 73.308594 373.367188 74.597656 373.382812 75.894531 C 373.402344 77.191406 373.316406 78.484375 373.128906 79.769531 C 372.882812 81.003906 356.101562 211.546875 443.214844 246.589844 C 446.523438 247.820312 449.785156 249.15625 453.003906 250.605469 C 456.222656 252.054688 459.386719 253.609375 462.496094 255.273438 C 465.609375 256.933594 468.664062 258.703125 471.65625 260.570312 C 474.648438 262.4375 477.574219 264.40625 480.433594 266.472656 C 483.292969 268.539062 486.082031 270.703125 488.792969 272.957031 C 491.507812 275.210938 494.140625 277.554688 496.699219 279.988281 C 499.253906 282.421875 501.722656 284.9375 504.109375 287.539062 C 506.492188 290.140625 508.789062 292.816406 510.992188 295.570312 C 513.195312 298.328125 515.304688 301.152344 517.316406 304.050781 C 519.332031 306.949219 521.242188 309.910156 523.054688 312.9375 C 524.867188 315.964844 526.578125 319.050781 528.179688 322.191406 C 529.785156 325.335938 531.28125 328.527344 532.671875 331.773438 C 534.058594 335.015625 535.335938 338.304688 536.503906 341.632812 C 537.667969 344.964844 538.71875 348.328125 539.660156 351.730469 C 540.597656 355.132812 541.421875 358.5625 542.128906 362.019531 C 542.835938 365.472656 543.425781 368.953125 543.894531 372.449219 Z M 543.894531 372.449219 " fill-opacity="1" fill-rule="nonzero"/><path fill="#ffffff" d="M 314.644531 372.449219 L 154.480469 372.449219 C 156.199219 364.910156 158.582031 357.589844 161.636719 350.484375 C 169.65625 334.617188 179.148438 319.6875 190.113281 305.691406 C 201.078125 291.695312 213.300781 278.90625 226.789062 267.320312 C 229.746094 264.605469 232.710938 261.644531 235.421875 258.929688 C 237.082031 265.257812 239.164062 271.441406 241.664062 277.484375 C 244.167969 283.527344 247.066406 289.375 250.359375 295.027344 C 253.652344 300.675781 257.316406 306.078125 261.34375 311.234375 C 265.371094 316.386719 269.726562 321.246094 274.414062 325.808594 C 289.019531 340.320312 302.429688 355.867188 314.644531 372.449219 Z M 314.644531 372.449219 " fill-opacity="1" fill-rule="nonzero"/><g clip-path="url(#b53d60b6db)"><path fill="#ffffff" d="M 545.625 397.125 L 150.78125 397.125 C 149.164062 397.128906 147.550781 397.207031 145.941406 397.367188 C 144.335938 397.527344 142.738281 397.765625 141.152344 398.082031 C 139.570312 398.398438 138.003906 398.792969 136.457031 399.261719 C 134.910156 399.730469 133.390625 400.277344 131.898438 400.894531 C 130.40625 401.515625 128.949219 402.207031 127.523438 402.96875 C 126.097656 403.730469 124.714844 404.5625 123.371094 405.460938 C 122.027344 406.355469 120.730469 407.320312 119.480469 408.34375 C 118.234375 409.371094 117.035156 410.453125 115.894531 411.597656 C 114.75 412.738281 113.667969 413.933594 112.640625 415.183594 C 111.617188 416.433594 110.65625 417.730469 109.757812 419.074219 C 108.859375 420.417969 108.027344 421.800781 107.265625 423.226562 C 106.503906 424.648438 105.8125 426.109375 105.195312 427.601562 C 104.574219 429.09375 104.03125 430.613281 103.558594 432.160156 C 103.089844 433.707031 102.695312 435.269531 102.378906 436.855469 C 102.0625 438.441406 101.824219 440.039062 101.664062 441.644531 C 101.507812 443.253906 101.425781 444.867188 101.421875 446.480469 L 101.421875 471.160156 C 101.429688 474.792969 101.519531 478.425781 101.703125 482.054688 C 101.886719 485.683594 102.15625 489.304688 102.515625 492.921875 C 102.875 496.535156 103.324219 500.140625 103.859375 503.734375 C 104.398438 507.328125 105.023438 510.90625 105.734375 514.472656 C 106.445312 518.035156 107.246094 521.578125 108.128906 525.101562 C 109.015625 528.625 109.988281 532.125 111.046875 535.601562 C 112.101562 539.078125 113.246094 542.527344 114.472656 545.949219 C 115.695312 549.367188 117.007812 552.757812 118.398438 556.113281 C 119.792969 559.46875 121.265625 562.789062 122.820312 566.074219 C 124.375 569.359375 126.011719 572.601562 127.726562 575.804688 C 129.441406 579.007812 131.230469 582.167969 133.101562 585.285156 C 134.96875 588.402344 136.914062 591.46875 138.933594 594.492188 C 140.953125 597.511719 143.046875 600.480469 145.210938 603.398438 C 147.375 606.316406 149.613281 609.179688 151.917969 611.988281 C 154.222656 614.796875 156.597656 617.546875 159.035156 620.242188 C 161.476562 622.933594 163.980469 625.5625 166.550781 628.132812 C 169.121094 630.703125 171.75 633.207031 174.445312 635.648438 C 177.136719 638.085938 179.886719 640.460938 182.695312 642.765625 C 185.503906 645.070312 188.367188 647.308594 191.285156 649.472656 C 194.203125 651.636719 197.171875 653.730469 200.191406 655.75 C 203.214844 657.769531 206.28125 659.714844 209.398438 661.582031 C 212.515625 663.453125 215.675781 665.246094 218.878906 666.957031 C 222.082031 668.671875 225.324219 670.308594 228.609375 671.863281 C 231.894531 673.417969 235.214844 674.890625 238.570312 676.285156 C 241.925781 677.675781 245.316406 678.988281 248.734375 680.214844 C 252.15625 681.4375 255.605469 682.582031 259.082031 683.636719 C 262.558594 684.695312 266.058594 685.667969 269.582031 686.554688 C 273.105469 687.4375 276.648438 688.238281 280.210938 688.949219 C 283.777344 689.660156 287.355469 690.285156 290.949219 690.824219 C 294.542969 691.359375 298.148438 691.808594 301.761719 692.167969 C 305.378906 692.527344 309 692.796875 312.628906 692.980469 C 316.257812 693.164062 319.890625 693.253906 323.523438 693.261719 L 372.878906 693.261719 C 376.515625 693.253906 380.144531 693.164062 383.773438 692.980469 C 387.402344 692.796875 391.027344 692.527344 394.640625 692.167969 C 398.257812 691.808594 401.863281 691.359375 405.457031 690.824219 C 409.050781 690.285156 412.628906 689.660156 416.191406 688.949219 C 419.753906 688.238281 423.296875 687.4375 426.824219 686.554688 C 430.347656 685.667969 433.847656 684.695312 437.324219 683.636719 C 440.800781 682.582031 444.25 681.4375 447.667969 680.214844 C 451.089844 678.988281 454.476562 677.675781 457.835938 676.285156 C 461.191406 674.890625 464.511719 673.417969 467.792969 671.863281 C 471.078125 670.308594 474.324219 668.671875 477.527344 666.957031 C 480.730469 665.246094 483.890625 663.453125 487.007812 661.582031 C 490.121094 659.714844 493.191406 657.769531 496.210938 655.75 C 499.230469 653.730469 502.203125 651.636719 505.121094 649.472656 C 508.039062 647.308594 510.902344 645.070312 513.710938 642.765625 C 516.519531 640.460938 519.269531 638.085938 521.960938 635.648438 C 524.652344 633.207031 527.285156 630.703125 529.851562 628.132812 C 532.421875 625.5625 534.925781 622.933594 537.367188 620.242188 C 539.808594 617.546875 542.179688 614.796875 544.488281 611.988281 C 546.792969 609.179688 549.027344 606.316406 551.191406 603.398438 C 553.359375 600.480469 555.449219 597.511719 557.46875 594.492188 C 559.492188 591.46875 561.433594 588.402344 563.304688 585.285156 C 565.171875 582.167969 566.964844 579.007812 568.679688 575.804688 C 570.394531 572.601562 572.027344 569.359375 573.582031 566.074219 C 575.140625 562.789062 576.613281 559.46875 578.003906 556.113281 C 579.398438 552.757812 580.707031 549.367188 581.933594 545.949219 C 583.160156 542.527344 584.300781 539.078125 585.359375 535.601562 C 586.417969 532.125 587.386719 528.625 588.273438 525.101562 C 589.160156 521.578125 589.957031 518.035156 590.671875 514.472656 C 591.382812 510.90625 592.007812 507.328125 592.542969 503.734375 C 593.078125 500.140625 593.527344 496.535156 593.886719 492.921875 C 594.246094 489.304688 594.519531 485.683594 594.699219 482.054688 C 594.882812 478.425781 594.976562 474.792969 594.980469 471.160156 L 594.980469 446.480469 C 594.980469 444.867188 594.898438 443.253906 594.738281 441.644531 C 594.578125 440.039062 594.339844 438.441406 594.023438 436.855469 C 593.707031 435.269531 593.3125 433.707031 592.84375 432.160156 C 592.375 430.613281 591.828125 429.09375 591.210938 427.601562 C 590.589844 426.109375 589.902344 424.648438 589.136719 423.226562 C 588.375 421.800781 587.546875 420.417969 586.648438 419.074219 C 585.75 417.730469 584.789062 416.433594 583.761719 415.183594 C 582.738281 413.933594 581.652344 412.738281 580.511719 411.597656 C 579.367188 410.453125 578.171875 409.371094 576.921875 408.34375 C 575.671875 407.320312 574.378906 406.355469 573.035156 405.457031 C 571.691406 404.5625 570.304688 403.730469 568.882812 402.96875 C 567.457031 402.207031 565.996094 401.515625 564.503906 400.894531 C 563.011719 400.277344 561.492188 399.730469 559.945312 399.261719 C 558.402344 398.792969 556.835938 398.398438 555.25 398.082031 C 553.664062 397.765625 552.070312 397.527344 550.460938 397.367188 C 548.851562 397.207031 547.242188 397.128906 545.625 397.125 Z M 545.625 397.125 " fill-opacity="1" fill-rule="nonzero"/></g><path fill="#ffffff" d="M 174.71875 372.449219 L 116.96875 372.449219 L 6.171875 187.609375 C 5.761719 186.917969 5.386719 186.203125 5.050781 185.472656 C 4.710938 184.742188 4.40625 183.996094 4.140625 183.234375 C 3.875 182.472656 3.648438 181.699219 3.457031 180.917969 C 3.265625 180.132812 3.113281 179.34375 3 178.546875 C 2.886719 177.746094 2.8125 176.945312 2.777344 176.140625 C 2.742188 175.335938 2.746094 174.53125 2.789062 173.726562 C 2.835938 172.921875 2.917969 172.121094 3.039062 171.324219 C 3.160156 170.527344 3.320312 169.738281 3.519531 168.957031 C 3.71875 168.175781 3.957031 167.40625 4.230469 166.648438 C 4.507812 165.890625 4.816406 165.148438 5.164062 164.417969 C 5.511719 163.691406 5.890625 162.984375 6.308594 162.292969 C 6.726562 161.601562 7.175781 160.933594 7.65625 160.289062 C 8.136719 159.640625 8.648438 159.019531 9.191406 158.425781 C 9.734375 157.828125 10.304688 157.257812 10.902344 156.71875 C 11.5 156.179688 12.125 155.667969 12.769531 155.1875 C 13.417969 154.707031 14.089844 154.261719 14.78125 153.847656 C 15.472656 153.433594 16.183594 153.054688 16.910156 152.710938 C 17.640625 152.363281 18.382812 152.054688 19.140625 151.785156 C 19.898438 151.511719 20.671875 151.277344 21.453125 151.082031 C 22.234375 150.882812 23.023438 150.726562 23.820312 150.605469 C 24.617188 150.488281 25.417969 150.40625 26.222656 150.363281 C 27.027344 150.324219 27.832031 150.320312 28.640625 150.359375 C 29.445312 150.398438 30.246094 150.472656 31.042969 150.589844 C 31.839844 150.703125 32.632812 150.859375 33.414062 151.050781 C 34.195312 151.246094 34.96875 151.476562 35.726562 151.746094 C 36.488281 152.011719 37.234375 152.316406 37.964844 152.660156 C 38.695312 153 39.40625 153.375 40.097656 153.789062 C 40.792969 154.199219 41.464844 154.640625 42.113281 155.117188 C 42.765625 155.59375 43.390625 156.101562 43.988281 156.640625 C 44.589844 157.179688 45.164062 157.742188 45.707031 158.335938 C 46.253906 158.929688 46.769531 159.550781 47.253906 160.195312 C 47.738281 160.839844 48.191406 161.503906 48.609375 162.191406 L 161.636719 350.484375 Z M 174.71875 372.449219 " fill-opacity="1" fill-rule="nonzero"/></svg>