<svg xmlns="http://www.w3.org/2000/svg" xmlns:xlink="http://www.w3.org/1999/xlink" width="793" zoomAndPan="magnify" viewBox="0 0 594.95996 842.24997" height="1122" preserveAspectRatio="xMidYMid meet" version="1.0"><defs><clipPath id="eb4d3866c8"><path d="M 0.246094 568 L 594.675781 568 L 594.675781 650 L 0.246094 650 Z M 0.246094 568 " clip-rule="nonzero"/></clipPath><clipPath id="c8c72aa359"><path d="M 0.246094 0 L 594.675781 0 L 594.675781 841.5 L 0.246094 841.5 Z M 0.246094 0 " clip-rule="nonzero"/></clipPath></defs><g clip-path="url(#eb4d3866c8)"><path fill="#fcf7f6" d="M 599.460938 568.425781 L 599.460938 608.832031 C 599.460938 631.179688 581.40625 649.234375 559.054688 649.234375 L 36.171875 649.234375 C 13.820312 649.234375 -4.234375 631.179688 -4.234375 608.832031 L -4.234375 568.425781 Z M 599.460938 568.425781 " fill-opacity="1" fill-rule="nonzero"/></g><path fill="#fcf7f6" d="M 43.261719 478.59375 L 179.519531 515.128906 C 173.070312 532.320312 159.960938 546.289062 143.199219 554.242188 L 83.453125 554.242188 C 54.652344 540.917969 38.320312 509.324219 43.261719 478.59375 Z M 43.261719 478.59375 " fill-opacity="1" fill-rule="nonzero"/><path fill="#fcf7f6" d="M 131.59375 421.425781 C 167.054688 430.882812 188.972656 465.914062 183.171875 501.375 L 46.917969 464.839844 C 59.597656 431.097656 96.132812 411.96875 131.59375 421.425781 Z M 131.59375 421.425781 " fill-opacity="1" fill-rule="nonzero"/><path fill="#fcf7f6" d="M 315.773438 421.425781 C 351.234375 430.882812 373.15625 465.914062 367.351562 501.375 L 230.882812 464.839844 C 236.683594 449.578125 247.429688 436.898438 261.828125 428.519531 C 278.378906 418.847656 297.503906 416.480469 315.773438 421.425781 Z M 315.773438 421.425781 " fill-opacity="1" fill-rule="nonzero"/><path fill="#fcf7f6" d="M 227.445312 478.59375 L 363.699219 515.128906 C 357.25 532.320312 344.140625 546.289062 327.378906 554.242188 L 267.632812 554.242188 C 238.835938 540.917969 222.5 509.539062 227.445312 478.59375 Z M 227.445312 478.59375 " fill-opacity="1" fill-rule="nonzero"/><path fill="#fcf7f6" d="M 411.625 478.59375 L 547.878906 515.128906 C 541.433594 532.320312 528.324219 546.289062 511.558594 554.242188 L 451.8125 554.242188 C 423.015625 540.917969 406.683594 509.324219 411.625 478.59375 Z M 411.625 478.59375 " fill-opacity="1" fill-rule="nonzero"/><path fill="#fcf7f6" d="M 500.167969 421.425781 C 535.628906 430.882812 557.550781 465.914062 551.75 501.375 L 415.492188 464.839844 C 428.171875 431.097656 464.707031 411.753906 500.167969 421.425781 Z M 500.167969 421.425781 " fill-opacity="1" fill-rule="nonzero"/><path fill="#fcf7f6" d="M 561.632812 191.898438 C 565.503906 192.972656 567.652344 196.839844 566.792969 200.710938 L 510.699219 409.605469 C 508.550781 408.746094 506.1875 408.101562 503.824219 407.457031 C 501.457031 406.8125 499.09375 406.382812 496.730469 405.953125 L 552.824219 197.054688 C 553.898438 193.1875 557.765625 190.824219 561.632812 191.898438 Z M 561.632812 191.898438 " fill-opacity="1" fill-rule="nonzero"/><path fill="#fcf7f6" d="M 377.238281 191.898438 C 381.105469 192.972656 383.257812 196.839844 382.394531 200.710938 L 326.304688 409.605469 C 324.15625 408.746094 321.789062 408.101562 319.425781 407.457031 C 317.0625 406.8125 314.699219 406.382812 312.335938 405.953125 L 368.425781 197.054688 C 369.5 193.1875 373.585938 190.824219 377.238281 191.898438 Z M 377.238281 191.898438 " fill-opacity="1" fill-rule="nonzero"/><path fill="#fcf7f6" d="M 193.058594 191.898438 C 196.925781 192.972656 199.074219 196.839844 198.214844 200.710938 L 142.121094 409.605469 C 139.972656 408.746094 137.609375 408.101562 135.246094 407.457031 C 132.882812 406.8125 130.515625 406.382812 128.152344 405.953125 L 184.246094 197.054688 C 185.320312 193.1875 189.1875 190.824219 193.058594 191.898438 Z M 193.058594 191.898438 " fill-opacity="1" fill-rule="nonzero"/><g clip-path="url(#c8c72aa359)"><path fill="#a80303" d="M 297.503906 947.105469 C 226.367188 947.105469 157.382812 933.136719 92.476562 905.625 C 29.722656 879.191406 -26.585938 841.152344 -74.941406 792.796875 C -123.296875 744.441406 -161.335938 688.132812 -187.769531 625.378906 C -215.0625 560.691406 -229.035156 491.703125 -229.035156 420.566406 C -229.035156 349.429688 -215.0625 280.441406 -187.554688 215.539062 C -161.121094 152.785156 -123.082031 96.476562 -74.726562 48.121094 C -26.371094 -0.234375 29.9375 -38.273438 92.691406 -64.710938 C 157.382812 -92.003906 226.367188 -105.972656 297.503906 -105.972656 C 368.640625 -105.972656 437.628906 -92.003906 502.535156 -64.496094 C 565.289062 -38.058594 621.59375 -0.0195312 669.949219 48.335938 C 718.308594 96.691406 756.347656 153 782.78125 215.753906 C 810.289062 280.65625 824.257812 349.644531 824.257812 420.78125 C 824.257812 491.917969 810.289062 560.90625 782.78125 625.808594 C 756.347656 688.5625 718.308594 744.871094 669.949219 793.226562 C 621.59375 841.582031 565.289062 879.621094 502.535156 906.054688 C 437.414062 933.136719 368.425781 947.105469 297.503906 947.105469 Z M 297.503906 -92.21875 C 14.894531 -92.21875 -215.277344 137.953125 -215.277344 420.566406 C -215.277344 703.175781 14.679688 933.136719 297.503906 933.136719 C 580.332031 933.136719 810.074219 703.175781 810.074219 420.566406 C 810.074219 137.953125 579.902344 -92.21875 297.503906 -92.21875 Z M 297.503906 -92.21875 " fill-opacity="1" fill-rule="nonzero"/></g></svg>