<svg xmlns="http://www.w3.org/2000/svg" xmlns:xlink="http://www.w3.org/1999/xlink" width="793" zoomAndPan="magnify" viewBox="0 0 594.95996 842.24997" height="1122" preserveAspectRatio="xMidYMid meet" version="1.0"><defs><clipPath id="8bfba747b6"><path d="M 12.539062 347.765625 L 594.675781 347.765625 L 594.675781 493.136719 L 12.539062 493.136719 Z M 12.539062 347.765625 " clip-rule="nonzero"/></clipPath></defs><g clip-path="url(#8bfba747b6)"><path fill="#ffffff" d="M 85.355469 347.765625 C 45.132812 347.765625 12.550781 380.34375 12.550781 420.566406 C 12.550781 460.789062 45.132812 493.367188 85.355469 493.367188 C 125.578125 493.367188 158.15625 460.789062 158.15625 420.566406 C 158.15625 380.34375 125.578125 347.765625 85.355469 347.765625 Z M 522.167969 347.765625 C 481.945312 347.765625 449.367188 380.34375 449.367188 420.566406 C 449.367188 460.789062 481.945312 493.367188 522.167969 493.367188 C 562.390625 493.367188 594.972656 460.789062 594.972656 420.566406 C 594.972656 380.34375 562.390625 347.765625 522.167969 347.765625 Z M 303.761719 347.765625 C 263.539062 347.765625 230.960938 380.34375 230.960938 420.566406 C 230.960938 460.789062 263.539062 493.367188 303.761719 493.367188 C 343.984375 493.367188 376.5625 460.789062 376.5625 420.566406 C 376.5625 380.34375 343.984375 347.765625 303.761719 347.765625 Z M 303.761719 347.765625 " fill-opacity="1" fill-rule="nonzero"/></g></svg>