<svg xmlns="http://www.w3.org/2000/svg" xmlns:xlink="http://www.w3.org/1999/xlink" width="793" zoomAndPan="magnify" viewBox="0 0 595.5 842.249979" height="1122" preserveAspectRatio="xMidYMid meet" version="1.0"><defs><clipPath id="f1cd7882d4"><path d="M 1 239.171875 L 593 239.171875 L 593 601.851562 L 1 601.851562 Z M 1 239.171875 " clip-rule="nonzero"/></clipPath></defs><g clip-path="url(#f1cd7882d4)"><path fill="#f1e4c1" d="M 296.355469 239.191406 C 196.320312 239.191406 115.109375 320.46875 115.109375 420.570312 C 115.109375 520.667969 196.320312 601.949219 296.355469 601.949219 C 396.390625 601.949219 477.605469 520.667969 477.605469 420.570312 C 477.605469 320.46875 396.390625 239.191406 296.355469 239.191406 Z M 541.316406 239.191406 C 531.792969 239.191406 523.488281 243.710938 516.980469 250.191406 C 510.503906 256.667969 505.5 265.097656 501.523438 274.171875 C 493.574219 292.351562 489.757812 313 489.757812 326.753906 C 489.757812 348.429688 503.351562 366.511719 522.332031 373.886719 L 518.96875 582.804688 C 518.839844 589.1875 522.847656 593.964844 527.078125 597.011719 C 531.3125 600.054688 536.121094 601.949219 541.1875 601.949219 C 546.253906 601.949219 551.09375 600.089844 555.390625 597.042969 C 559.6875 594.027344 563.789062 589.28125 563.695312 582.804688 L 560.105469 373.949219 C 579.210938 366.640625 592.871094 348.492188 592.871094 326.753906 C 592.871094 313 589.054688 292.351562 581.136719 274.171875 C 577.160156 265.097656 572.160156 256.667969 565.652344 250.191406 C 559.171875 243.710938 550.871094 239.191406 541.316406 239.191406 Z M 7.953125 239.191406 C 4.554688 239.257812 1.863281 242.046875 1.894531 245.445312 L 1.894531 351.828125 C 1.894531 364.84375 12.570312 375.523438 25.558594 375.523438 L 34.4375 375.523438 L 31.070312 582.804688 C 30.976562 589.1875 34.984375 593.964844 39.214844 597.011719 C 43.449219 600.054688 48.257812 601.949219 53.324219 601.949219 C 58.355469 601.949219 63.199219 600.089844 67.496094 597.042969 C 71.792969 593.996094 75.925781 589.28125 75.800781 582.804688 L 72.273438 375.523438 L 81.3125 375.523438 C 94.332031 375.523438 105.007812 364.84375 105.007812 351.828125 L 105.007812 245.445312 C 105.039062 241.980469 102.21875 239.160156 98.753906 239.191406 C 95.355469 239.257812 92.632812 242.046875 92.664062 245.445312 L 92.664062 315.40625 L 72.5625 315.40625 L 72.5625 245.445312 C 72.59375 241.980469 69.769531 239.160156 66.308594 239.191406 C 62.910156 239.257812 60.183594 242.046875 60.25 245.445312 L 60.25 315.40625 L 46.652344 315.40625 L 46.652344 245.445312 C 46.6875 241.980469 43.863281 239.160156 40.402344 239.191406 C 37.003906 239.257812 34.277344 242.046875 34.34375 245.445312 L 34.34375 315.40625 L 14.207031 315.40625 L 14.207031 245.445312 C 14.269531 241.980469 11.417969 239.160156 7.953125 239.191406 Z M 296.355469 291.101562 C 367.726562 291.101562 425.730469 349.132812 425.730469 420.570312 C 425.730469 491.972656 367.726562 550.007812 296.355469 550.007812 C 224.984375 550.007812 166.984375 491.972656 166.984375 420.570312 C 166.984375 349.132812 224.984375 291.101562 296.355469 291.101562 Z M 296.355469 303.414062 C 231.65625 303.414062 179.296875 355.804688 179.296875 420.570312 C 179.296875 485.335938 231.65625 537.695312 296.355469 537.695312 C 361.058594 537.695312 413.417969 485.335938 413.417969 420.570312 C 413.417969 355.804688 361.058594 303.414062 296.355469 303.414062 Z M 296.324219 317.070312 L 296.355469 317.070312 C 303.476562 317.070312 310.464844 317.808594 317.199219 319.1875 C 323.929688 320.566406 330.441406 322.585938 336.628906 325.214844 C 342.816406 327.8125 348.683594 331.019531 354.199219 334.738281 C 359.679688 338.488281 364.8125 342.691406 369.492188 347.371094 C 374.171875 352.050781 378.40625 357.183594 382.125 362.695312 C 384.082031 365.519531 383.375 369.398438 380.519531 371.320312 C 377.667969 373.246094 373.789062 372.476562 371.929688 369.589844 C 368.625 364.75 364.90625 360.226562 360.769531 356.09375 C 356.667969 351.957031 352.144531 348.238281 347.304688 344.964844 C 342.429688 341.664062 337.269531 338.84375 331.816406 336.535156 C 326.367188 334.226562 320.660156 332.460938 314.730469 331.242188 C 308.796875 330.023438 302.640625 329.382812 296.355469 329.382812 C 288.308594 329.253906 288.246094 317.230469 296.324219 317.070312 Z M 391.519531 394.726562 C 394.5 394.664062 397.097656 396.78125 397.675781 399.730469 C 399.054688 406.460938 399.757812 413.421875 399.757812 420.570312 C 399.757812 428.777344 387.480469 428.777344 387.445312 420.570312 C 387.445312 414.253906 386.804688 408.128906 385.621094 402.199219 C 384.785156 398.382812 387.640625 394.792969 391.519531 394.726562 Z M 391.519531 394.726562 " fill-opacity="1" fill-rule="nonzero"/></g></svg>